<svg width="274" height="92" viewBox="0 0 274 92" fill="none" xmlns="http://www.w3.org/2000/svg">
<mask id="path-1-inside-1_61_38" fill="white">
<path d="M0 21.5H94V70.5H0V21.5Z"/>
</mask>
<path d="M0 70.5H0.666667V21.5H0H-0.666667V70.5H0Z" fill="white" fill-opacity="0.2" mask="url(#path-1-inside-1_61_38)"/>
<text x="137" y="50" font-family="'JetBrains Mono', monospace" font-size="18" font-weight="300" fill="white" fill-opacity="0.6" text-anchor="middle" letter-spacing="0.1em">NEXUS</text>
<path d="M110.178 62.1591C109.773 62.1591 109.425 62.107 109.134 62.0028C108.843 61.901 108.6 61.7661 108.406 61.598C108.214 61.4323 108.061 61.2547 107.948 61.0653L108.615 60.5966C108.691 60.696 108.787 60.8097 108.903 60.9375C109.019 61.0677 109.177 61.1802 109.379 61.2749C109.582 61.3719 109.849 61.4205 110.178 61.4205C110.618 61.4205 110.981 61.3139 111.268 61.1009C111.554 60.8878 111.698 60.554 111.698 60.0994V58.9915H111.627C111.565 59.0909 111.477 59.214 111.364 59.3608C111.253 59.5052 111.092 59.6342 110.881 59.7479C110.673 59.8591 110.391 59.9148 110.036 59.9148C109.595 59.9148 109.2 59.8106 108.85 59.6023C108.502 59.3939 108.226 59.0909 108.022 58.6932C107.821 58.2955 107.72 57.8125 107.72 57.2443C107.72 56.6856 107.819 56.1991 108.015 55.7848C108.212 55.3681 108.485 55.0462 108.835 54.8189C109.186 54.5893 109.591 54.4744 110.05 54.4744C110.405 54.4744 110.687 54.5336 110.895 54.652C111.106 54.768 111.267 54.9006 111.378 55.0497C111.492 55.1965 111.579 55.3172 111.641 55.4119H111.726V54.5455H112.536V60.1562C112.536 60.625 112.429 61.0062 112.216 61.2997C112.005 61.5956 111.721 61.8123 111.364 61.9496C111.009 62.0893 110.613 62.1591 110.178 62.1591ZM110.149 59.1619C110.485 59.1619 110.77 59.085 111.002 58.9311C111.234 58.7772 111.41 58.5559 111.531 58.267C111.651 57.9782 111.712 57.6326 111.712 57.2301C111.712 56.8371 111.653 56.4903 111.534 56.1896C111.416 55.889 111.241 55.6534 111.009 55.483C110.777 55.3125 110.49 55.2273 110.149 55.2273C109.794 55.2273 109.498 55.3172 109.262 55.4972C109.027 55.6771 108.851 55.9186 108.732 56.2216C108.616 56.5246 108.558 56.8608 108.558 57.2301C108.558 57.6089 108.618 57.9439 108.736 58.2351C108.857 58.5239 109.034 58.7512 109.269 58.9169C109.505 59.0803 109.799 59.1619 110.149 59.1619ZM115.886 60.1136C115.393 60.1136 114.961 59.9964 114.59 59.7621C114.22 59.5277 113.931 59.1998 113.723 58.7784C113.517 58.357 113.414 57.8646 113.414 57.3011C113.414 56.733 113.517 56.237 113.723 55.8132C113.931 55.3894 114.22 55.0604 114.59 54.826C114.961 54.5916 115.393 54.4744 115.886 54.4744C116.378 54.4744 116.809 54.5916 117.178 54.826C117.55 55.0604 117.839 55.3894 118.045 55.8132C118.253 56.237 118.357 56.733 118.357 57.3011C118.357 57.8646 118.253 58.357 118.045 58.7784C117.839 59.1998 117.55 59.5277 117.178 59.7621C116.809 59.9964 116.378 60.1136 115.886 60.1136ZM115.886 59.3608C116.26 59.3608 116.568 59.2649 116.809 59.0732C117.05 58.8814 117.229 58.6293 117.345 58.3168C117.461 58.0043 117.519 57.6657 117.519 57.3011C117.519 56.9366 117.461 56.5968 117.345 56.282C117.229 55.9671 117.05 55.7126 116.809 55.5185C116.568 55.3243 116.26 55.2273 115.886 55.2273C115.512 55.2273 115.204 55.3243 114.962 55.5185C114.721 55.7126 114.542 55.9671 114.426 56.282C114.31 56.5968 114.252 56.9366 114.252 57.3011C114.252 57.6657 114.31 58.0043 114.426 58.3168C114.542 58.6293 114.721 58.8814 114.962 59.0732C115.204 59.2649 115.512 59.3608 115.886 59.3608ZM123.501 54.5455L121.484 60H120.632L118.615 54.5455H119.524L121.03 58.892H121.087L122.592 54.5455H123.501ZM126.299 60.1136C125.774 60.1136 125.32 59.9976 124.939 59.7656C124.56 59.5312 124.268 59.2045 124.062 58.7855C123.858 58.3641 123.757 57.8741 123.757 57.3153C123.757 56.7566 123.858 56.2642 124.062 55.8381C124.268 55.4096 124.554 55.0758 124.921 54.8366C125.291 54.5952 125.722 54.4744 126.214 54.4744C126.498 54.4744 126.779 54.5218 127.056 54.6165C127.333 54.7112 127.585 54.8651 127.812 55.0781C128.039 55.2888 128.22 55.5682 128.355 55.9162C128.49 56.2642 128.558 56.6927 128.558 57.2017V57.5568H124.353V56.8324H127.706C127.706 56.5246 127.644 56.25 127.521 56.0085C127.4 55.767 127.227 55.5765 127.002 55.4368C126.78 55.2971 126.517 55.2273 126.214 55.2273C125.88 55.2273 125.591 55.3101 125.348 55.4759C125.106 55.6392 124.92 55.8523 124.79 56.1151C124.66 56.3778 124.595 56.6596 124.595 56.9602V57.4432C124.595 57.8551 124.666 58.2043 124.808 58.4908C124.952 58.7749 125.152 58.9915 125.408 59.1406C125.664 59.2874 125.961 59.3608 126.299 59.3608C126.519 59.3608 126.718 59.33 126.896 59.2685C127.076 59.2045 127.231 59.1098 127.361 58.9844C127.491 58.8565 127.592 58.6979 127.663 58.5085L128.473 58.7358C128.387 59.0104 128.244 59.2519 128.043 59.4602C127.842 59.6662 127.593 59.8272 127.297 59.9432C127.001 60.0568 126.669 60.1136 126.299 60.1136ZM129.433 60V54.5455H130.242V55.3693H130.299C130.399 55.0994 130.579 54.8804 130.839 54.7124C131.099 54.5443 131.393 54.4602 131.72 54.4602C131.781 54.4602 131.858 54.4614 131.95 54.4638C132.043 54.4661 132.113 54.4697 132.16 54.4744V55.3267C132.132 55.3196 132.066 55.3089 131.965 55.2947C131.865 55.2782 131.76 55.2699 131.649 55.2699C131.383 55.2699 131.147 55.3255 130.938 55.4368C130.732 55.5457 130.569 55.6972 130.448 55.8913C130.33 56.0831 130.271 56.3021 130.271 56.5483V60H129.433ZM134.358 60.1278C134.013 60.1278 133.699 60.0627 133.417 59.9325C133.136 59.8 132.912 59.6094 132.746 59.3608C132.581 59.1098 132.498 58.8068 132.498 58.4517C132.498 58.1392 132.559 57.8859 132.682 57.6918C132.805 57.4953 132.97 57.3414 133.176 57.2301C133.382 57.1188 133.609 57.036 133.858 56.9815C134.109 56.9247 134.361 56.8797 134.614 56.8466C134.946 56.804 135.214 56.772 135.42 56.7507C135.629 56.727 135.78 56.688 135.875 56.6335C135.972 56.5791 136.02 56.4844 136.02 56.3494V56.321C136.02 55.9706 135.925 55.6984 135.733 55.5043C135.543 55.3101 135.256 55.2131 134.87 55.2131C134.47 55.2131 134.156 55.3007 133.929 55.4759C133.702 55.651 133.542 55.8381 133.449 56.0369L132.654 55.7528C132.796 55.4214 132.985 55.1634 133.222 54.9787C133.461 54.7917 133.722 54.6615 134.003 54.5881C134.287 54.5123 134.567 54.4744 134.841 54.4744C135.017 54.4744 135.218 54.4957 135.445 54.5384C135.675 54.5786 135.896 54.6626 136.109 54.7905C136.325 54.9183 136.503 55.1113 136.645 55.3693C136.787 55.6274 136.858 55.973 136.858 56.4062V60H136.02V59.2614H135.978C135.921 59.3797 135.826 59.5064 135.694 59.6413C135.561 59.7763 135.385 59.8911 135.165 59.9858C134.944 60.0805 134.676 60.1278 134.358 60.1278ZM134.486 59.375C134.818 59.375 135.097 59.3099 135.324 59.1797C135.554 59.0495 135.727 58.8814 135.843 58.6754C135.961 58.4695 136.02 58.2528 136.02 58.0256V57.2585C135.985 57.3011 135.907 57.3402 135.786 57.3757C135.668 57.4089 135.53 57.4384 135.374 57.4645C135.22 57.4882 135.07 57.5095 134.923 57.5284C134.779 57.545 134.662 57.5592 134.572 57.571C134.354 57.5994 134.15 57.6456 133.961 57.7095C133.774 57.7711 133.622 57.8646 133.506 57.9901C133.393 58.1132 133.336 58.2812 133.336 58.4943C133.336 58.7855 133.443 59.0057 133.659 59.1548C133.877 59.3016 134.153 59.375 134.486 59.375ZM138.826 56.7188V60H137.988V54.5455H138.798V55.3977H138.869C138.997 55.1207 139.191 54.8982 139.451 54.7301C139.712 54.5597 140.048 54.4744 140.46 54.4744C140.829 54.4744 141.152 54.5502 141.429 54.7017C141.706 54.8509 141.922 55.0781 142.075 55.3835C142.229 55.6866 142.306 56.0701 142.306 56.5341V60H141.468V56.5909C141.468 56.1624 141.357 55.8286 141.134 55.5895C140.912 55.348 140.607 55.2273 140.218 55.2273C139.951 55.2273 139.712 55.2853 139.501 55.4013C139.293 55.5173 139.128 55.6866 139.007 55.9091C138.887 56.1316 138.826 56.4015 138.826 56.7188ZM145.654 60.1136C145.142 60.1136 144.702 59.9929 144.333 59.7514C143.963 59.5099 143.679 59.1773 143.48 58.7536C143.281 58.3298 143.182 57.8456 143.182 57.3011C143.182 56.7472 143.284 56.2583 143.487 55.8345C143.693 55.4084 143.98 55.0758 144.347 54.8366C144.716 54.5952 145.147 54.4744 145.639 54.4744C146.023 54.4744 146.369 54.5455 146.676 54.6875C146.984 54.8295 147.236 55.0284 147.433 55.2841C147.629 55.5398 147.751 55.8381 147.799 56.179H146.96C146.897 55.9304 146.755 55.7102 146.534 55.5185C146.317 55.3243 146.023 55.2273 145.654 55.2273C145.327 55.2273 145.04 55.3125 144.794 55.483C144.55 55.651 144.36 55.889 144.223 56.1967C144.088 56.5021 144.02 56.8608 144.02 57.2727C144.02 57.6941 144.086 58.0611 144.219 58.3736C144.354 58.6861 144.543 58.9287 144.787 59.1016C145.033 59.2744 145.322 59.3608 145.654 59.3608C145.871 59.3608 146.069 59.3229 146.247 59.2472C146.424 59.1714 146.575 59.0625 146.698 58.9205C146.821 58.7784 146.908 58.608 146.96 58.4091H147.799C147.751 58.7311 147.634 59.0211 147.447 59.2791C147.262 59.5348 147.017 59.7384 146.712 59.8899C146.409 60.0391 146.056 60.1136 145.654 60.1136ZM150.911 60.1136C150.385 60.1136 149.932 59.9976 149.551 59.7656C149.172 59.5312 148.879 59.2045 148.673 58.7855C148.47 58.3641 148.368 57.8741 148.368 57.3153C148.368 56.7566 148.47 56.2642 148.673 55.8381C148.879 55.4096 149.166 55.0758 149.533 54.8366C149.902 54.5952 150.333 54.4744 150.825 54.4744C151.109 54.4744 151.39 54.5218 151.667 54.6165C151.944 54.7112 152.196 54.8651 152.423 55.0781C152.651 55.2888 152.832 55.5682 152.967 55.9162C153.102 56.2642 153.169 56.6927 153.169 57.2017V57.5568H148.965V56.8324H152.317C152.317 56.5246 152.255 56.25 152.132 56.0085C152.011 55.767 151.839 55.5765 151.614 55.4368C151.391 55.2971 151.128 55.2273 150.825 55.2273C150.492 55.2273 150.203 55.3101 149.959 55.4759C149.717 55.6392 149.532 55.8523 149.401 56.1151C149.271 56.3778 149.206 56.6596 149.206 56.9602V57.4432C149.206 57.8551 149.277 58.2043 149.419 58.4908C149.564 58.7749 149.764 58.9915 150.019 59.1406C150.275 59.2874 150.572 59.3608 150.911 59.3608C151.131 59.3608 151.33 59.33 151.507 59.2685C151.687 59.2045 151.842 59.1098 151.972 58.9844C152.103 58.8565 152.203 58.6979 152.274 58.5085L153.084 58.7358C152.999 59.0104 152.855 59.2519 152.654 59.4602C152.453 59.6662 152.204 59.8272 151.908 59.9432C151.613 60.0568 151.28 60.1136 150.911 60.1136ZM160.32 55.767L159.567 55.9801C159.52 55.8546 159.45 55.7327 159.358 55.6143C159.268 55.4936 159.145 55.3942 158.988 55.3161C158.832 55.2379 158.632 55.1989 158.388 55.1989C158.055 55.1989 157.776 55.2758 157.554 55.4297C157.334 55.5812 157.224 55.7741 157.224 56.0085C157.224 56.2169 157.299 56.3814 157.451 56.5021C157.602 56.6229 157.839 56.7235 158.161 56.804L158.971 57.0028C159.458 57.1212 159.822 57.3023 160.061 57.5462C160.3 57.7876 160.42 58.099 160.42 58.4801C160.42 58.7926 160.33 59.072 160.15 59.3182C159.972 59.5644 159.724 59.7585 159.404 59.9006C159.084 60.0426 158.713 60.1136 158.289 60.1136C157.733 60.1136 157.272 59.9929 156.907 59.7514C156.543 59.5099 156.312 59.1572 156.215 58.6932L157.01 58.4943C157.086 58.7879 157.229 59.008 157.44 59.1548C157.653 59.3016 157.931 59.375 158.275 59.375C158.665 59.375 158.975 59.2921 159.205 59.1264C159.437 58.9583 159.553 58.7571 159.553 58.5227C159.553 58.3333 159.487 58.1747 159.354 58.0469C159.222 57.9167 159.018 57.8196 158.743 57.7557L157.834 57.5426C157.335 57.4242 156.968 57.2408 156.733 56.9922C156.501 56.7412 156.385 56.4276 156.385 56.0511C156.385 55.7434 156.472 55.4711 156.645 55.2344C156.82 54.9976 157.058 54.8118 157.358 54.6768C157.662 54.5419 158.005 54.4744 158.388 54.4744C158.928 54.4744 159.352 54.5928 159.66 54.8295C159.97 55.0663 160.19 55.3788 160.32 55.767ZM161.821 62.0455C161.679 62.0455 161.552 62.0336 161.441 62.0099C161.33 61.9886 161.253 61.9673 161.21 61.946L161.423 61.2074C161.627 61.2595 161.807 61.2784 161.963 61.2642C162.119 61.25 162.258 61.1802 162.378 61.0547C162.502 60.9316 162.614 60.7315 162.716 60.4545L162.872 60.0284L160.855 54.5455H161.764L163.27 58.892H163.327L164.832 54.5455H165.741L163.426 60.7955C163.322 61.0772 163.193 61.3104 163.039 61.495C162.885 61.6821 162.706 61.8205 162.503 61.9105C162.301 62.0005 162.074 62.0455 161.821 62.0455ZM170.311 55.767L169.558 55.9801C169.511 55.8546 169.441 55.7327 169.349 55.6143C169.259 55.4936 169.136 55.3942 168.979 55.3161C168.823 55.2379 168.623 55.1989 168.379 55.1989C168.046 55.1989 167.767 55.2758 167.545 55.4297C167.325 55.5812 167.215 55.7741 167.215 56.0085C167.215 56.2169 167.29 56.3814 167.442 56.5021C167.593 56.6229 167.83 56.7235 168.152 56.804L168.962 57.0028C169.449 57.1212 169.813 57.3023 170.052 57.5462C170.291 57.7876 170.411 58.099 170.411 58.4801C170.411 58.7926 170.321 59.072 170.141 59.3182C169.963 59.5644 169.715 59.7585 169.395 59.9006C169.075 60.0426 168.704 60.1136 168.28 60.1136C167.724 60.1136 167.263 59.9929 166.899 59.7514C166.534 59.5099 166.303 59.1572 166.206 58.6932L167.001 58.4943C167.077 58.7879 167.22 59.008 167.431 59.1548C167.644 59.3016 167.922 59.375 168.266 59.375C168.656 59.375 168.966 59.2921 169.196 59.1264C169.428 58.9583 169.544 58.7571 169.544 58.5227C169.544 58.3333 169.478 58.1747 169.345 58.0469C169.213 57.9167 169.009 57.8196 168.734 57.7557L167.825 57.5426C167.326 57.4242 166.959 57.2408 166.724 56.9922C166.492 56.7412 166.376 56.4276 166.376 56.0511C166.376 55.7434 166.463 55.4711 166.636 55.2344C166.811 54.9976 167.049 54.8118 167.349 54.6768C167.653 54.5419 167.996 54.4744 168.379 54.4744C168.919 54.4744 169.343 54.5928 169.651 54.8295C169.961 55.0663 170.181 55.3788 170.311 55.767ZM173.644 54.5455V55.2557H170.818V54.5455H173.644ZM171.641 53.2386H172.48V58.4375C172.48 58.6742 172.514 58.8518 172.582 58.9702C172.654 59.0862 172.743 59.1643 172.852 59.2045C172.964 59.2424 173.081 59.2614 173.204 59.2614C173.296 59.2614 173.372 59.2566 173.431 59.2472C173.49 59.2353 173.538 59.2259 173.573 59.2188L173.744 59.9716C173.687 59.9929 173.608 60.0142 173.506 60.0355C173.404 60.0592 173.275 60.071 173.119 60.071C172.882 60.071 172.65 60.0201 172.423 59.9183C172.198 59.8165 172.011 59.6615 171.862 59.4531C171.715 59.2448 171.641 58.982 171.641 58.6648V53.2386ZM176.733 60.1136C176.208 60.1136 175.754 59.9976 175.373 59.7656C174.994 59.5312 174.702 59.2045 174.496 58.7855C174.292 58.3641 174.191 57.8741 174.191 57.3153C174.191 56.7566 174.292 56.2642 174.496 55.8381C174.702 55.4096 174.988 55.0758 175.355 54.8366C175.725 54.5952 176.156 54.4744 176.648 54.4744C176.932 54.4744 177.213 54.5218 177.49 54.6165C177.767 54.7112 178.019 54.8651 178.246 55.0781C178.473 55.2888 178.654 55.5682 178.789 55.9162C178.924 56.2642 178.992 56.6927 178.992 57.2017V57.5568H174.787V56.8324H178.14C178.14 56.5246 178.078 56.25 177.955 56.0085C177.834 55.767 177.661 55.5765 177.436 55.4368C177.214 55.2971 176.951 55.2273 176.648 55.2273C176.314 55.2273 176.025 55.3101 175.782 55.4759C175.54 55.6392 175.354 55.8523 175.224 56.1151C175.094 56.3778 175.029 56.6596 175.029 56.9602V57.4432C175.029 57.8551 175.1 58.2043 175.242 58.4908C175.386 58.7749 175.586 58.9915 175.842 59.1406C176.098 59.2874 176.395 59.3608 176.733 59.3608C176.953 59.3608 177.152 59.33 177.33 59.2685C177.51 59.2045 177.665 59.1098 177.795 58.9844C177.925 58.8565 178.026 58.6979 178.097 58.5085L178.907 58.7358C178.821 59.0104 178.678 59.2519 178.477 59.4602C178.276 59.6662 178.027 59.8272 177.731 59.9432C177.435 60.0568 177.103 60.1136 176.733 60.1136ZM179.867 60V54.5455H180.676V55.3977H180.747C180.861 55.1065 181.044 54.8804 181.298 54.7195C181.551 54.5561 181.855 54.4744 182.21 54.4744C182.57 54.4744 182.87 54.5561 183.109 54.7195C183.35 54.8804 183.539 55.1065 183.673 55.3977H183.73C183.87 55.116 184.079 54.8923 184.359 54.7266C184.638 54.5585 184.973 54.4744 185.364 54.4744C185.852 54.4744 186.25 54.6271 186.561 54.9325C186.871 55.2356 187.026 55.7079 187.026 56.3494V60H186.188V56.3494C186.188 55.947 186.078 55.6593 185.857 55.4865C185.637 55.3137 185.378 55.2273 185.08 55.2273C184.696 55.2273 184.399 55.3433 184.188 55.5753C183.978 55.8049 183.872 56.0961 183.872 56.4489V60H183.02V56.2642C183.02 55.9541 182.919 55.7043 182.718 55.5149C182.517 55.3232 182.258 55.2273 181.941 55.2273C181.723 55.2273 181.519 55.2853 181.33 55.4013C181.143 55.5173 180.991 55.6783 180.875 55.8842C180.762 56.0878 180.705 56.3234 180.705 56.5909V60H179.867Z" fill="white" fill-opacity="0.4"/>
<!-- Container/Document Icon -->
<g opacity="0.4">
  <!-- Main container box -->
  <rect x="30" y="30" width="44" height="32" rx="4" fill="none" stroke="white" stroke-width="1.5" stroke-opacity="0.3"/>
  <!-- Inner grid lines (empty state indicator) -->
  <line x1="35" y1="40" x2="69" y2="40" stroke="white" stroke-width="1" stroke-opacity="0.2"/>
  <line x1="35" y1="48" x2="69" y2="48" stroke="white" stroke-width="1" stroke-opacity="0.2"/>
  <line x1="35" y1="56" x2="60" y2="56" stroke="white" stroke-width="1" stroke-opacity="0.2"/>
</g>
<defs>
<linearGradient id="paint0_linear_61_38" x1="34" y1="28" x2="70" y2="64" gradientUnits="userSpaceOnUse">
<stop stop-color="white" stop-opacity="0.06"/>
<stop offset="1" stop-color="white" stop-opacity="0.02"/>
</linearGradient>
<radialGradient id="paint1_radial_61_38" cx="0" cy="0" r="1" gradientUnits="userSpaceOnUse" gradientTransform="translate(46.6 40.6) rotate(-90) scale(33.0926)">
<stop stop-color="white" stop-opacity="0.1"/>
<stop offset="0.62" stop-opacity="0"/>
</radialGradient>
<linearGradient id="paint2_linear_61_38" x1="34" y1="28" x2="70" y2="64" gradientUnits="userSpaceOnUse">
<stop stop-color="white" stop-opacity="0.06"/>
<stop offset="1" stop-color="white" stop-opacity="0.02"/>
</linearGradient>
<radialGradient id="paint3_radial_61_38" cx="0" cy="0" r="1" gradientUnits="userSpaceOnUse" gradientTransform="translate(46.6 40.6) rotate(-90) scale(33.0926)">
<stop stop-color="white" stop-opacity="0.1"/>
<stop offset="0.62" stop-opacity="0"/>
</radialGradient>
</defs>
</svg>
